<svg xmlns="http://www.w3.org/2000/svg" width="40" height="40" viewBox="0 0 40 40">
  <g id="pluginIcon" fill="none" fill-rule="evenodd" stroke="none" stroke-width="1">
    <path id="Fill-2" fill="#BD9859" d="M9,20 C9,26.075 13.925,31 20,31 C26.075,31 31,26.075 31,20 C31,13.925 26.075,9 20,9 C13.925,9 9,13.925 9,20 L9,20 Z M17.756,6.107 C17.636,5.312 18.225,3.756 18.601,3 L21.399,3 C21.775,3.756 22.364,5.312 22.244,6.107 L25.003,6.847 C25.297,6.097 26.584,5.045 27.289,4.578 L29.711,5.977 C29.66,6.82 29.392,8.462 28.89,9.091 L30.91,11.11 C31.539,10.608 33.18,10.34 34.023,10.289 L35.422,12.711 C34.956,13.416 33.903,14.703 33.153,14.997 L33.893,17.756 C34.688,17.636 36.244,18.225 37,18.602 L37,21.398 C36.244,21.775 34.688,22.364 33.893,22.244 L33.153,25.003 C33.903,25.297 34.956,26.584 35.422,27.289 L34.023,29.711 C33.18,29.66 31.539,29.392 30.91,28.89 L28.89,30.909 C29.392,31.538 29.66,33.18 29.711,34.023 L27.289,35.422 C26.584,34.955 25.297,33.903 25.003,33.153 L22.244,33.893 C22.364,34.688 21.775,36.244 21.399,37 L18.601,37 C18.225,36.244 17.636,34.688 17.756,33.893 L14.997,33.153 C14.703,33.903 13.416,34.955 12.711,35.422 L10.289,34.023 C10.34,33.18 10.608,31.538 11.11,30.909 L9.09,28.89 C8.461,29.392 6.82,29.66 5.977,29.711 L4.578,27.289 C5.044,26.584 6.097,25.297 6.847,25.003 L6.107,22.244 C5.312,22.364 3.756,21.775 3,21.398 L3,18.602 C3.756,18.225 5.312,17.636 6.107,17.756 L6.847,14.997 C6.097,14.703 5.044,13.416 4.578,12.711 L5.977,10.289 C6.82,10.34 8.461,10.608 9.09,11.11 L11.11,9.091 C10.608,8.462 10.34,6.82 10.289,5.977 L12.711,4.578 C13.416,5.045 14.703,6.097 14.997,6.847 L17.756,6.107 Z"/>
    <path id="Fill-4" fill="#BD9859" d="M27.4741,23.792 C26.2461,26.521 23.3711,28.947 20.6851,27.872 C22.8391,27.978 24.0341,24.31 24.1371,21.893 C24.1961,20.372 24.7011,17.839 25.8691,17.018 C27.8021,15.658 29.0731,20.235 27.4741,23.792 M20.9981,27.009 C22.0241,26.068 22.3221,23.282 22.3701,21.833 C22.4271,19.058 24.3141,15.593 26.4011,16.219 C23.8181,14.479 20.4091,16.789 18.9781,19.971 C17.7801,22.635 18.0171,25.451 19.4011,26.984 C19.6891,27.303 20.5331,27.466 20.9981,27.009 M17.6001,19.833 C17.3631,19.647 17.1341,19.474 16.9371,19.334 C14.6531,17.758 12.8021,14.273 14.4741,12.877 C11.5991,14.073 11.6481,18.191 13.5151,21.139 C14.4221,22.572 15.6421,23.615 16.9041,24.189 C16.7811,22.825 17.0011,21.323 17.6001,19.833 M14.8481,13.761 C14.7831,11.556 18.7171,12.685 20.9381,15.525 C19.9701,16.199 19.0941,17.119 18.4031,18.236 C18.2551,18.114 18.1071,17.998 17.9611,17.893 C16.7241,17.006 14.8891,15.188 14.8481,13.761"/>
  </g>
</svg>
